<svg viewBox="0 0 240 230" height="230" width="240"
  style="width: 240px; height: 230px; position: absolute; top: 50%; left: 50%; z-index: 0; cursor: pointer; overflow: visible; transform: translate(-50%, -50%) scale(0.633043);">
  <defs id="SvgjsDefs5002"></defs>
  <g id="SvgjsG5003" featurekey="rootContainer" transform="matrix(1,0,0,1,0,0)" fill="#111111">
    <rect xmlns="http://www.w3.org/2000/svg" width="240" height="230" rx="10" ry="10"></rect>
  </g>
  <g id="SvgjsG5004" featurekey="symbolFeature-0"
    transform="matrix(0.10865135490894318,0,0,0.10865135490894318,65.65802243785821,6.385985374110751)"
    fill="#fcfcfc">
    <g xmlns="http://www.w3.org/2000/svg">
      <path
        d="M661.8,226L637,215.3c-12.6-5.4-27.4,0.4-32.8,13l-36.9,85.7L269.8,185.9c-4.2-34.1-33.4-60.6-68.6-60.6   c-38.1,0-69.2,31-69.2,69.1c0,38.1,31,69.2,69.2,69.2c12.3,0,23.9-3.2,33.9-8.9l322.4,138.9l27.1,11.7c10.8,4.7,23.3,1,30-8.2   c1.1-1.5,2-3.1,2.7-4.8l11.1-25.7l0.2-0.4l46.3-107.5C680.3,246.2,674.4,231.5,661.8,226z M201.2,231.9c-2.4,0-4.7-0.2-7-0.7   c-17.3-3.3-30.4-18.5-30.4-36.8c0-20.6,16.8-37.4,37.4-37.4c11.2,0,21.2,4.9,28,12.7c5.8,6.6,9.4,15.3,9.4,24.8   C238.6,215.1,221.8,231.9,201.2,231.9z"></path>
      <path d="M628.3,366.7c-0.1,0.3-0.2,0.5-0.3,0.8l-10.7,24.8c0,0,0,0.1-0.1,0.1L628.3,366.7z"></path>
      <path
        d="M545.3,279.8L387.9,212c-6.1-2.6-8.9-9.7-6.3-15.8l21-48.7c2.6-6.1,9.7-8.9,15.8-6.3l157.4,67.8   c6.1,2.6,8.9,9.7,6.3,15.8l-21,48.7C558.5,279.6,551.4,282.4,545.3,279.8z"></path>
      <path
        d="M614.5,397.2c-6.7,9.2-19.2,12.9-30.1,8.3l-24.8-10.7c-0.7-0.3-1.5-0.7-2.2-1.1l27.1,11.7   C595.4,410,607.8,406.4,614.5,397.2z"></path>
      <path d="M630.3,632.5l-24.9-10.6c0,0-0.1,0-0.1-0.1L630.3,632.5z"></path>
      <path
        d="M717.5,549.4l67.1-157.7c2.6-6.1,9.7-8.9,15.7-6.3l48.7,20.7c6.1,2.6,8.9,9.7,6.3,15.7l-67.1,157.7   c-2.6,6.1-9.7,8.9-15.7,6.3l-48.7-20.7C717.8,562.5,714.9,555.4,717.5,549.4z"></path>
      <path
        d="M597,616.1c0.1,0.1,0.1,0.1,0.2,0.2C597.2,616.2,597.1,616.2,597,616.1C597.1,616.1,597.1,616.1,597,616.1z   "></path>
      <path d="M597.2,616.2c0.3,0.3,0.5,0.6,0.8,0.8C597.7,616.8,597.5,616.5,597.2,616.2z"></path>
      <path
        d="M596.1,615c0.3,0.4,0.6,0.7,0.9,1c-6.7-7-9-17.6-5-27l10.6-24.9c0.3-0.7,0.7-1.4,1.1-2.1l-11.5,27.1   c-1.5,3.6-2.2,7.4-2,11.1c0,0.3,0,0.5,0.1,0.7c0,0.3,0,0.5,0.1,0.8c0,0,0,0.1,0,0.1c0.1,0.4,0.1,0.9,0.2,1.3   c0.1,0.4,0.1,0.8,0.2,1.2c0,0.2,0.1,0.4,0.2,0.6c0.1,0.4,0.2,0.7,0.3,1c0.1,0.4,0.2,0.8,0.4,1.2c0,0.2,0.1,0.3,0.2,0.5   c0.1,0.4,0.3,0.8,0.5,1.1c0.2,0.4,0.3,0.7,0.5,1.1c0.1,0.2,0.2,0.5,0.4,0.7c0,0.1,0.1,0.2,0.1,0.3c0.2,0.3,0.3,0.6,0.5,0.8   c0.1,0.3,0.3,0.5,0.5,0.7c0.2,0.3,0.4,0.7,0.7,1c0.2,0.2,0.3,0.5,0.5,0.7C595.6,614.4,595.8,614.7,596.1,615z"></path>
      <path d="M599.3,618.2c-0.4-0.4-0.8-0.7-1.2-1.1C598.4,617.4,598.8,617.8,599.3,618.2z"></path>
      <path
        d="M375.8,610.9L365,636.6c0.1-0.2,0.2-0.5,0.3-0.7l10.5-24.9C375.8,610.9,375.8,610.9,375.8,610.9z"></path>
      <path
        d="M448.8,722.8l158,66.4c6.1,2.6,9,9.6,6.4,15.7l-20.5,48.8c-2.6,6.1-9.6,9-15.7,6.4l-158-66.4   c-6.1-2.6-9-9.6-6.4-15.7l20.5-48.8C435.6,723.1,442.7,720.2,448.8,722.8z"></path>
      <path
        d="M435.5,609l-27.1-11.4c-9.7-4-20.6-1.5-27.5,5.6c6.9-7.2,17.9-9.8,27.6-5.7l24.9,10.5   C434.2,608.3,434.9,608.6,435.5,609z"></path>
      <path
        d="M385.7,381.4l-26-10.8c0.3,0.1,0.6,0.2,0.9,0.4l25,10.4C385.7,381.3,385.7,381.3,385.7,381.4z"></path>
      <path
        d="M274.1,454.8l-65.7,158.3c-2.5,6.1-9.6,9-15.7,6.5l-48.9-20.3c-6.1-2.5-9-9.6-6.5-15.7L203,425.4   c2.5-6.1,9.6-9,15.7-6.5l48.9,20.3C273.8,441.7,276.7,448.7,274.1,454.8z"></path>
      <g>
        <path
          d="M798.8,133c-38.1,0-69.2,31-69.2,69.1c0,13.9,4.1,26.8,11.2,37.6L603.7,562l-11.5,27.1    c-1.5,3.6-2.2,7.4-2,11.1c0,0.2,0,0.5,0.1,0.7c0,0.3,0,0.5,0.1,0.8c0,0,0,0.1,0,0.1c0.1,0.4,0.1,0.9,0.2,1.3    c0.1,0.4,0.1,0.8,0.2,1.2c0,0.2,0.1,0.4,0.2,0.6c0.1,0.4,0.2,0.7,0.3,1c0.1,0.4,0.2,0.8,0.4,1.2c0,0.2,0.1,0.3,0.2,0.5    c0.1,0.4,0.3,0.8,0.5,1.1c0.2,0.4,0.3,0.7,0.5,1.1c0.1,0.2,0.2,0.5,0.4,0.7c0,0.1,0.1,0.2,0.1,0.3c0.2,0.3,0.3,0.6,0.5,0.8    c0.1,0.3,0.3,0.5,0.5,0.7c0.2,0.3,0.4,0.7,0.7,1c0.2,0.2,0.3,0.5,0.5,0.7c0.3,0.3,0.5,0.6,0.8,1c0.2,0.2,0.3,0.4,0.5,0.6    c0.1,0.1,0.1,0.1,0.2,0.2c0.1,0.1,0.1,0.1,0.2,0.2c0.1,0.1,0.1,0.1,0.1,0.1c0.7,0.7,1.4,1.4,2.2,2c0,0,0,0,0,0    c0.4,0.3,0.8,0.6,1.2,0.9c1.5,1.1,3.1,2,4.8,2.7l25,10.7l1.2,0.5l107.7,45.8c12.6,5.4,27.4-0.6,32.7-13.2l10.6-24.9    c5.4-12.6-0.6-27.3-13.2-32.7l-85.9-36.5l128.2-301.3c32.1-6,56.4-34.2,56.4-68C868,164,837,133,798.8,133z M826.1,227.7    c-6.8,7.3-16.5,11.8-27.3,11.8c-20.6,0-37.4-16.8-37.4-37.4c0-0.7,0-1.5,0.1-2.2v0c1.1-19.6,17.4-35.2,37.4-35.2    c20.6,0,37.4,16.8,37.4,37.4C836.3,212,832.4,221,826.1,227.7z"></path>
      </g>
      <g>
        <path
          d="M392.1,385.2c-1.9-1.6-4-2.9-6.3-3.8l-26-10.8l-0.3-0.1l-108.1-44.8c-12.7-5.3-27.4,0.8-32.6,13.5    l-10.4,25c-5.3,12.7,0.8,27.4,13.5,32.6l86.2,35.8L181.7,737.2c-28.7,8.4-49.7,35-49.7,66.4c0,38.1,31,69.2,69.2,69.2    c38.1,0,69.2-31,69.2-69.2c0-16.2-5.6-31.1-15-42.9l132.5-319.5c0.4-0.7,0.7-1.4,1-2.1l10.4-25C403.5,403.7,400.3,392,392.1,385.2    z M201.2,841c-20.6,0-37.4-16.8-37.4-37.4c0-7.6,2.3-14.6,6.1-20.5c6.7-10.2,18.2-16.9,31.3-16.9c19.3,0,35.2,14.7,37.2,33.5v0    c0.1,1.3,0.2,2.6,0.2,3.9C238.6,824.2,221.8,841,201.2,841z"></path>
      </g>
      <g>
        <path
          d="M795,736.3c-12.5,0-24.3,3.4-34.5,9.2L435.5,609l-27.1-11.4c-9.7-4-20.6-1.5-27.5,5.6    c-2.1,2.2-3.9,4.7-5.1,7.7L365,636.6L319.5,745c-5.3,12.7,0.7,27.4,13.3,32.7l24.9,10.5c12.7,5.3,27.4-0.7,32.7-13.3l36.2-86.1    l299.9,126c4.5,33.8,33.5,59.9,68.5,59.9c38.1,0,69.2-31,69.2-69.2C864.2,767.4,833.2,736.3,795,736.3z M795,842.9    c-11.3,0-21.4-5-28.2-12.9h0c-5.7-6.6-9.2-15.2-9.2-24.5c0-20.6,16.8-37.4,37.4-37.4c1.9,0,3.7,0.1,5.6,0.4    c18,2.7,31.9,18.3,31.9,37C832.5,826.1,815.7,842.9,795,842.9z"></path>
      </g>
    </g>
  </g>
  <g id="SvgjsG5005" featurekey="nameFeature-0"
    transform="matrix(2.3629491329193115,0,0,2.3629491329193115,12.060493221835756,84.32702297733366)"
    fill="#fcfcfc">
    <path
      d="M19.28 28.6 c0.88 1.04 1.32 2.4 1.32 4.08 c0 1.44 -0.32 2.76 -1 3.92 s-1.64 2.08 -2.96 2.76 c-1.32 0.72 -2.92 1.04 -4.8 1.04 c-1.16 0 -2.44 -0.16 -3.8 -0.52 c-1.56 -0.4 -2.6 -0.6 -3.16 -0.6 c-0.24 0 -0.52 0 -0.84 0.04 l0 0 l-0.04 0 c-0.16 0.04 -0.28 0 -0.4 -0.12 s-0.16 -0.24 -0.16 -0.4 c0.04 -0.6 0.08 -1.4 0.08 -2.4 c0 -1.08 -0.04 -2.08 -0.08 -3 c0 -0.32 -0.04 -0.6 -0.08 -0.84 c0 -0.16 0.04 -0.32 0.16 -0.44 c0.08 -0.12 0.24 -0.2 0.4 -0.24 c0.16 0 0.28 0.04 0.4 0.12 c0.12 0.12 0.2 0.24 0.24 0.4 c0.32 2.04 1.04 3.64 2.2 4.76 c1.24 1.2 2.8 1.8 4.64 1.8 c1.36 0 2.44 -0.4 3.24 -1.12 c0.8 -0.76 1.2 -1.76 1.2 -3 c0 -1.88 -1.28 -3.28 -3.84 -4.28 l-3.92 -1.64 c-3.08 -1.28 -4.6 -3.36 -4.6 -6.24 c0 -1.28 0.32 -2.48 0.92 -3.56 c0.64 -1.04 1.56 -1.92 2.8 -2.56 c1.2 -0.64 2.72 -0.96 4.48 -0.96 c0.88 0 1.64 0.08 2.24 0.2 c0.64 0.12 1.24 0.32 1.88 0.52 c0.6 0.2 1.04 0.36 1.32 0.44 c0.44 0.16 0.84 0.24 1.2 0.24 l0.52 0 c0.16 -0.04 0.28 0 0.4 0.12 c0.08 0.12 0.16 0.24 0.16 0.4 c-0.04 0.6 -0.08 1.4 -0.08 2.36 c0 0.8 0 1.36 0.04 1.72 c0 0.08 0 0.16 0.04 0.24 c0 0.2 -0.04 0.36 -0.16 0.52 c-0.12 0.12 -0.24 0.2 -0.44 0.2 l-0.04 0 c-0.16 0 -0.28 -0.04 -0.4 -0.16 s-0.16 -0.24 -0.2 -0.4 c-0.08 -1.4 -0.68 -2.56 -1.68 -3.48 c-1.12 -1.04 -2.52 -1.56 -4.16 -1.56 c-1.24 0 -2.28 0.32 -3.12 0.96 c-0.68 0.56 -1.08 1.24 -1.24 2.12 c-0.16 0.96 0.08 1.84 0.76 2.56 c0.56 0.6 1.44 1.16 2.64 1.64 l3.4 1.44 c2.12 0.92 3.6 1.88 4.52 2.92 z M43.52 38.56 c0.2 0 0.36 0.04 0.52 0.16 c0.16 0.08 0.24 0.24 0.28 0.4 c0.04 0.24 0 0.44 -0.16 0.64 c-0.12 0.16 -0.32 0.24 -0.52 0.24 l-10.68 0 c-0.2 0 -0.36 -0.08 -0.52 -0.2 c-0.12 -0.16 -0.2 -0.32 -0.2 -0.52 l0 -0.04 c0 -0.2 0.08 -0.36 0.2 -0.48 c0.16 -0.16 0.36 -0.24 0.56 -0.24 l1.08 0.08 c0.84 0.08 1.24 -0.24 1.24 -0.96 c0 -0.48 -0.16 -1 -0.4 -1.6 l-1.4 -3.32 c-0.08 -0.16 -0.2 -0.24 -0.36 -0.24 l-8.4 0 c-0.12 0 -0.24 0.08 -0.32 0.24 l-1.28 3.08 c-0.36 0.84 -0.56 1.52 -0.56 2.04 c0 0.56 0.28 0.8 0.88 0.8 l1.08 -0.08 c0.2 0 0.36 0.04 0.52 0.2 c0.16 0.12 0.24 0.32 0.24 0.52 s-0.08 0.36 -0.24 0.52 c-0.12 0.12 -0.28 0.2 -0.48 0.2 l-5.88 0 c-0.2 0 -0.36 -0.08 -0.52 -0.2 c-0.12 -0.16 -0.2 -0.32 -0.2 -0.52 s0.08 -0.4 0.24 -0.52 c0.12 -0.16 0.32 -0.2 0.52 -0.2 l0.4 0.04 l0.16 0 c0.56 0 1 -0.28 1.36 -0.76 c0.4 -0.6 0.8 -1.4 1.2 -2.36 l7.92 -19.04 c0.32 -0.6 0.76 -0.92 1.36 -0.92 c0.32 0 0.6 0.08 0.84 0.24 s0.44 0.4 0.56 0.68 l8 19.12 c0.36 0.96 0.76 1.72 1.16 2.32 c0.36 0.48 0.84 0.72 1.4 0.72 l0.2 0 z M25.28 30.560000000000002 c-0.04 0.12 -0.04 0.24 0.04 0.32 c0.08 0.12 0.16 0.16 0.28 0.16 l6.72 0 c0.12 0 0.2 -0.04 0.28 -0.16 c0.08 -0.08 0.08 -0.2 0.04 -0.32 l-3.4 -8 c-0.08 -0.16 -0.16 -0.24 -0.32 -0.24 c-0.12 0 -0.24 0.08 -0.32 0.24 z M64.96 16 c0.2 0 0.32 0.08 0.44 0.16 c0.12 0.12 0.16 0.28 0.16 0.44 l0 4.88 c0 0.2 -0.08 0.36 -0.2 0.52 c-0.12 0.12 -0.32 0.2 -0.48 0.2 l-0.04 0 c-0.2 0 -0.36 -0.08 -0.48 -0.2 s-0.2 -0.28 -0.2 -0.48 c-0.12 -1.32 -0.56 -2.32 -1.32 -2.96 c-0.92 -0.76 -2.4 -1.16 -4.4 -1.16 l-3.48 0 c-0.32 0 -0.48 0.2 -0.48 0.52 l0 8.24 c0 0.32 0.12 0.6 0.32 0.84 c0.24 0.24 0.52 0.32 0.84 0.32 l1.56 0 c0.96 0 1.72 -0.36 2.32 -1.08 c0.48 -0.6 0.76 -1.4 0.84 -2.36 c0 -0.2 0.08 -0.32 0.2 -0.48 c0.16 -0.12 0.32 -0.16 0.48 -0.16 c0.2 0 0.36 0.08 0.52 0.2 c0.12 0.12 0.2 0.32 0.2 0.48 l0 8.16 c0 0.16 -0.08 0.36 -0.2 0.48 c-0.16 0.12 -0.32 0.2 -0.52 0.2 c-0.16 0 -0.32 -0.04 -0.48 -0.16 c-0.12 -0.12 -0.2 -0.28 -0.2 -0.48 c-0.12 -0.92 -0.4 -1.68 -0.88 -2.28 c-0.56 -0.72 -1.32 -1.08 -2.28 -1.08 l-1.56 0 c-0.32 0 -0.6 0.08 -0.84 0.32 c-0.2 0.24 -0.32 0.52 -0.32 0.84 l0 7.84 c0 0.24 0.08 0.44 0.2 0.6 c0.16 0.16 0.32 0.24 0.56 0.24 l1.36 -0.08 c0.2 0 0.36 0.04 0.52 0.2 c0.12 0.12 0.2 0.28 0.2 0.48 l0 0.12 c0 0.16 -0.08 0.36 -0.2 0.48 s-0.32 0.2 -0.48 0.2 l-9.2 0 c-0.2 0 -0.36 -0.08 -0.48 -0.2 s-0.2 -0.32 -0.2 -0.48 l0 -0.08 c0 -0.2 0.08 -0.4 0.2 -0.52 c0.16 -0.12 0.36 -0.2 0.56 -0.2 l0.68 0.08 c0.48 0 0.72 -0.32 0.72 -0.88 l0 -19.48 c0 -0.56 -0.24 -0.84 -0.68 -0.84 l-0.08 0 l-0.68 0.04 c-0.2 0 -0.36 -0.04 -0.52 -0.2 c-0.12 -0.12 -0.2 -0.28 -0.2 -0.48 l0 -0.08 c0 -0.16 0.08 -0.32 0.2 -0.48 c0.12 -0.12 0.28 -0.2 0.48 -0.2 l17.52 0 z M87.24 32.8 l0.04 0 c0.2 0 0.36 0.08 0.52 0.2 c0.12 0.16 0.2 0.32 0.2 0.52 l0 5.88 c0 0.16 -0.08 0.32 -0.2 0.48 c-0.16 0.12 -0.32 0.16 -0.52 0.16 c-0.68 -0.04 -1.76 -0.04 -3.16 -0.04 l-15.04 0 c-0.16 0 -0.36 -0.08 -0.48 -0.2 c-0.12 -0.16 -0.2 -0.32 -0.2 -0.52 l0 -0.04 c0 -0.2 0.08 -0.4 0.2 -0.52 c0.16 -0.12 0.36 -0.2 0.56 -0.2 l0.68 0.08 c0.48 0 0.72 -0.32 0.72 -0.88 l0 -19.44 c0 -0.24 -0.08 -0.44 -0.2 -0.64 c-0.16 -0.16 -0.36 -0.24 -0.6 -0.2 l-0.64 0.04 c-0.2 0 -0.36 -0.08 -0.52 -0.2 c-0.12 -0.12 -0.2 -0.32 -0.2 -0.52 l0 -0.04 c0 -0.2 0.08 -0.36 0.2 -0.48 c0.12 -0.16 0.32 -0.2 0.48 -0.2 l17 0 l0.04 0 c0.2 0 0.32 0.04 0.48 0.2 c0.12 0.12 0.2 0.28 0.2 0.44 l0 4.84 c0 0.2 -0.08 0.36 -0.24 0.48 c-0.12 0.16 -0.28 0.2 -0.48 0.2 l-0.04 0 c-0.16 0 -0.32 -0.04 -0.48 -0.16 c-0.12 -0.12 -0.2 -0.28 -0.2 -0.48 c-0.12 -1.36 -0.56 -2.36 -1.36 -3 c-0.88 -0.76 -2.36 -1.12 -4.32 -1.12 l-3.08 0 c-0.32 0 -0.48 0.16 -0.48 0.56 l0 7.76 c0 0.32 0.08 0.6 0.32 0.84 s0.52 0.36 0.84 0.36 l1.72 0 c0.92 0 1.64 -0.36 2.2 -1.08 c0.48 -0.6 0.72 -1.4 0.8 -2.36 c0.04 -0.16 0.12 -0.32 0.24 -0.44 s0.28 -0.2 0.48 -0.2 s0.36 0.08 0.48 0.2 c0.16 0.16 0.2 0.32 0.2 0.52 l0 8.04 c0 0.16 -0.04 0.36 -0.2 0.48 c-0.12 0.12 -0.28 0.2 -0.48 0.2 s-0.36 -0.04 -0.48 -0.16 s-0.2 -0.28 -0.24 -0.48 c-0.08 -0.84 -0.36 -1.56 -0.84 -2.2 c-0.6 -0.76 -1.32 -1.12 -2.16 -1.12 l-1.72 0 c-0.32 0 -0.6 0.12 -0.84 0.32 c-0.24 0.24 -0.32 0.52 -0.32 0.84 l0 8.52 c0 0.32 0.16 0.52 0.48 0.52 l4.4 0 c1.8 0 3.2 -0.52 4.16 -1.48 c0.84 -0.88 1.28 -2.08 1.4 -3.64 c0 -0.16 0.08 -0.32 0.24 -0.44 c0.12 -0.12 0.28 -0.2 0.44 -0.2 z"></path>
  </g>
  <g id="SvgjsG5006" featurekey="sloganFeature-0"
    transform="matrix(0.5605809688568115,0,0,0.5605809688568115,39.411389746554505,195.04013292370675)"
    fill="#fcfcfc">
    <path
      d="M10.85 10.2 c0.18 0 0.3 0.12 0.3 0.3 l0 1.19 c0 0.18 -0.12 0.3 -0.3 0.3 l-4.79 0 l0 7.71 c0 0.18 -0.12 0.3 -0.3 0.3 l-1.56 0 c-0.18 0 -0.3 -0.12 -0.3 -0.3 l0 -7.71 l-2.55 0 c-0.18 0 -0.3 -0.12 -0.3 -0.3 l0 -1.19 c0 -0.18 0.12 -0.3 0.3 -0.3 l2.55 0 l0 -0.98 c0 -3.12 2.08 -3.94 4.39 -3.94 c1.17 0 2.76 0.22 2.76 0.65 l0 1.13 c0 0.2 -0.14 0.32 -0.36 0.28 c-0.24 -0.04 -0.78 -0.23 -1.91 -0.23 c-1.46 0 -2.72 0.43 -2.72 2.31 l0 0.78 l4.79 0 z M22.745000000000005 8.13 c-0.7 0 -1.25 -0.55 -1.25 -1.24 c0 -0.7 0.55 -1.25 1.25 -1.25 c0.69 0 1.24 0.55 1.24 1.25 c0 0.69 -0.55 1.24 -1.24 1.24 z M26.805000000000003 18.19 c0.18 0 0.3 0.12 0.3 0.3 l0 1.21 c0 0.18 -0.12 0.3 -0.3 0.3 l-8.61 0 c-0.18 0 -0.3 -0.12 -0.3 -0.3 l0 -1.21 c0 -0.18 0.12 -0.3 0.3 -0.3 l3.49 0 l0 -6.18 l-2.99 0 c-0.18 0 -0.3 -0.12 -0.3 -0.3 l0 -1.21 c0 -0.18 0.12 -0.3 0.3 -0.3 l4.85 0 c0.18 0 0.3 0.12 0.3 0.3 l0 7.69 l2.96 0 z M39.97 9.98 c2.09 0 3.54 1.42 3.54 4.04 l0 5.68 c0 0.18 -0.12 0.3 -0.3 0.3 l-1.56 0 c-0.18 0 -0.3 -0.12 -0.3 -0.3 l0 -5.36 c0 -1.67 -0.86 -2.37 -2.17 -2.37 c-1.9 0 -2.72 1.64 -2.72 2.08 l0 5.65 c0 0.18 -0.12 0.3 -0.3 0.3 l-1.56 0 c-0.18 0 -0.3 -0.12 -0.3 -0.3 l0 -9.2 c0 -0.18 0.12 -0.3 0.3 -0.3 l1.48 0 c0.18 0 0.28 0.12 0.3 0.3 l0.08 1.32 l0.21 0 c0.58 -0.94 1.65 -1.84 3.3 -1.84 z M60.665000000000006 18.21 c0.25 0.06 0.36 0.14 0.36 0.35 l0 1.19 c0 0.23 -0.22 0.32 -0.57 0.33 c-1.45 0.03 -2.13 -0.5 -2.13 -1.64 l-0.09 0 c-1.02 1.16 -2.74 1.8 -4.15 1.8 c-2.19 0 -3.33 -1.09 -3.33 -2.79 c0 -1.77 1.13 -2.67 3.36 -3 l2.33 -0.36 c0.83 -0.13 1.27 -0.24 1.39 -0.47 c-0.05 -1.36 -0.83 -1.8 -2.12 -1.8 c-1.27 0 -2.19 0.34 -2.34 1.35 c-0.02 0.14 -0.11 0.22 -0.29 0.22 l-1.49 0 c-0.18 0 -0.31 -0.1 -0.29 -0.3 c0.24 -2.33 1.98 -3.11 4.43 -3.11 c2.84 0 4.2 1.33 4.2 3.74 l0 3.67 c0 0.44 0.23 0.72 0.73 0.82 z M54.495000000000005 18.39 c1.11 0 2.28 -0.25 3.34 -1.31 l0 -2.01 c-0.11 0.23 -0.5 0.34 -1.25 0.46 l-2.1 0.33 c-1.18 0.19 -1.57 0.66 -1.57 1.32 c0 0.73 0.48 1.21 1.58 1.21 z M73.74 9.98 c2.09 0 3.54 1.42 3.54 4.04 l0 5.68 c0 0.18 -0.12 0.3 -0.3 0.3 l-1.56 0 c-0.18 0 -0.3 -0.12 -0.3 -0.3 l0 -5.36 c0 -1.67 -0.86 -2.37 -2.17 -2.37 c-1.9 0 -2.72 1.64 -2.72 2.08 l0 5.65 c0 0.18 -0.12 0.3 -0.3 0.3 l-1.56 0 c-0.18 0 -0.3 -0.12 -0.3 -0.3 l0 -9.2 c0 -0.18 0.12 -0.3 0.3 -0.3 l1.48 0 c0.18 0 0.28 0.12 0.3 0.3 l0.08 1.32 l0.21 0 c0.58 -0.94 1.65 -1.84 3.3 -1.84 z M89.775 18.25 c1.06 0 1.92 -0.44 2.5 -1.18 c0.12 -0.15 0.24 -0.18 0.4 -0.08 l1.15 0.67 c0.16 0.1 0.22 0.24 0.1 0.4 c-0.86 1.32 -2.38 2.2 -4.19 2.2 c-2.98 0 -5.16 -2.23 -5.16 -5.14 s2.18 -5.14 5.16 -5.14 c1.81 0 3.33 0.88 4.19 2.2 c0.12 0.16 0.06 0.3 -0.1 0.4 l-1.15 0.67 c-0.16 0.1 -0.28 0.07 -0.4 -0.08 c-0.58 -0.74 -1.44 -1.19 -2.5 -1.19 c-1.78 0 -3.1 1.28 -3.1 3.14 s1.32 3.13 3.1 3.13 z M105.84 9.98 c2.96 0 4.74 2.27 4.74 4.89 c0 0.74 -0.09 1.11 -0.65 1.11 l-6.99 0 c0.23 1.52 1.5 2.5 3.31 2.5 c1.05 0 1.78 -0.32 2.45 -0.83 c0.16 -0.12 0.28 -0.15 0.43 0 l0.66 0.66 c0.15 0.15 0.16 0.29 0 0.45 c-0.95 0.95 -2.19 1.5 -3.76 1.5 c-3.12 0 -5.19 -2.26 -5.19 -5.14 s2.07 -5.14 5 -5.14 z M105.85000000000001 11.83 c-1.53 0 -2.67 1 -2.89 2.59 l5.72 0 c-0.16 -1.57 -1.27 -2.59 -2.83 -2.59 z M134.20000000000002 14.3 c2.11 0.27 4.56 0.53 4.56 2.94 c0 1.79 -1.48 3.02 -4.51 3.02 c-2.62 0 -4.39 -0.77 -4.62 -3.1 c-0.02 -0.2 0.11 -0.3 0.29 -0.3 l1.49 0 c0.18 0 0.27 0.08 0.29 0.22 c0.15 1.01 1.09 1.38 2.51 1.38 c1.54 0 2.43 -0.4 2.43 -1.26 c0 -0.91 -1.04 -1.13 -2.44 -1.3 c-2.08 -0.27 -4.38 -0.55 -4.38 -2.92 c0 -1.77 1.38 -3 4.23 -3 c2.48 0 4.27 0.76 4.5 3.09 c0.02 0.2 -0.11 0.3 -0.29 0.3 l-1.49 0 c-0.18 0 -0.27 -0.08 -0.29 -0.22 c-0.15 -1.01 -1.11 -1.38 -2.4 -1.38 c-1.33 0 -2.15 0.38 -2.15 1.25 s0.88 1.1 2.27 1.28 z M151.28500000000003 9.99 c2.84 0 4.49 2.23 4.49 5.13 s-1.69 5.13 -4.49 5.13 c-1.4 0 -2.44 -0.57 -3.17 -1.41 l0 4.66 c0 0.18 -0.12 0.3 -0.3 0.3 l-1.56 0 c-0.18 0 -0.3 -0.12 -0.3 -0.3 l0 -13 c0 -0.18 0.12 -0.3 0.3 -0.3 l1.56 0 c0.18 0 0.3 0.12 0.3 0.3 l0 1.14 l0.2 0 c0.54 -0.91 1.47 -1.65 2.97 -1.65 z M150.85500000000002 18.27 c1.87 0 2.83 -1.29 2.83 -3.17 s-0.96 -3.13 -2.83 -3.13 c-1.7 0 -2.76 1.25 -2.76 3.13 s1.06 3.17 2.76 3.17 z M167.72000000000003 9.98 c2.96 0 4.74 2.27 4.74 4.89 c0 0.74 -0.09 1.11 -0.65 1.11 l-6.99 0 c0.23 1.52 1.5 2.5 3.31 2.5 c1.05 0 1.78 -0.32 2.45 -0.83 c0.16 -0.12 0.28 -0.15 0.43 0 l0.66 0.66 c0.15 0.15 0.16 0.29 0 0.45 c-0.95 0.95 -2.19 1.5 -3.76 1.5 c-3.12 0 -5.19 -2.26 -5.19 -5.14 s2.07 -5.14 5 -5.14 z M167.73000000000002 11.83 c-1.53 0 -2.67 1 -2.89 2.59 l5.72 0 c-0.16 -1.57 -1.27 -2.59 -2.83 -2.59 z M184.60500000000002 18.25 c1.06 0 1.92 -0.44 2.5 -1.18 c0.12 -0.15 0.24 -0.18 0.4 -0.08 l1.15 0.67 c0.16 0.1 0.22 0.24 0.1 0.4 c-0.86 1.32 -2.38 2.2 -4.19 2.2 c-2.98 0 -5.16 -2.23 -5.16 -5.14 s2.18 -5.14 5.16 -5.14 c1.81 0 3.33 0.88 4.19 2.2 c0.12 0.16 0.06 0.3 -0.1 0.4 l-1.15 0.67 c-0.16 0.1 -0.28 0.07 -0.4 -0.08 c-0.58 -0.74 -1.44 -1.19 -2.5 -1.19 c-1.78 0 -3.1 1.28 -3.1 3.14 s1.32 3.13 3.1 3.13 z M200.52 8.13 c-0.7 0 -1.25 -0.55 -1.25 -1.24 c0 -0.7 0.55 -1.25 1.25 -1.25 c0.69 0 1.24 0.55 1.24 1.25 c0 0.69 -0.55 1.24 -1.24 1.24 z M204.58 18.19 c0.18 0 0.3 0.12 0.3 0.3 l0 1.21 c0 0.18 -0.12 0.3 -0.3 0.3 l-8.61 0 c-0.18 0 -0.3 -0.12 -0.3 -0.3 l0 -1.21 c0 -0.18 0.12 -0.3 0.3 -0.3 l3.49 0 l0 -6.18 l-2.99 0 c-0.18 0 -0.3 -0.12 -0.3 -0.3 l0 -1.21 c0 -0.18 0.12 -0.3 0.3 -0.3 l4.85 0 c0.18 0 0.3 0.12 0.3 0.3 l0 7.69 l2.96 0 z M221.58500000000004 18.21 c0.25 0.06 0.36 0.14 0.36 0.35 l0 1.19 c0 0.23 -0.22 0.32 -0.57 0.33 c-1.45 0.03 -2.13 -0.5 -2.13 -1.64 l-0.09 0 c-1.02 1.16 -2.74 1.8 -4.15 1.8 c-2.19 0 -3.33 -1.09 -3.33 -2.79 c0 -1.77 1.13 -2.67 3.36 -3 l2.33 -0.36 c0.83 -0.13 1.27 -0.24 1.39 -0.47 c-0.05 -1.36 -0.83 -1.8 -2.12 -1.8 c-1.27 0 -2.19 0.34 -2.34 1.35 c-0.02 0.14 -0.11 0.22 -0.29 0.22 l-1.49 0 c-0.18 0 -0.31 -0.1 -0.29 -0.3 c0.24 -2.33 1.98 -3.11 4.43 -3.11 c2.84 0 4.2 1.33 4.2 3.74 l0 3.67 c0 0.44 0.23 0.72 0.73 0.82 z M215.41500000000002 18.39 c1.11 0 2.28 -0.25 3.34 -1.31 l0 -2.01 c-0.11 0.23 -0.5 0.34 -1.25 0.46 l-2.1 0.33 c-1.18 0.19 -1.57 0.66 -1.57 1.32 c0 0.73 0.48 1.21 1.58 1.21 z M237.65 18.19 c0.18 0 0.3 0.12 0.3 0.3 l0 1.21 c0 0.18 -0.12 0.3 -0.3 0.3 l-8.71 0 c-0.18 0 -0.3 -0.12 -0.3 -0.3 l0 -1.21 c0 -0.18 0.12 -0.3 0.3 -0.3 l3.49 0 l0 -10.38 l-3.26 0 c-0.18 0 -0.3 -0.12 -0.3 -0.3 l0 -1.21 c0 -0.18 0.12 -0.3 0.3 -0.3 l5.12 0 c0.18 0 0.3 0.12 0.3 0.3 l0 11.89 l3.06 0 z M249.595 8.13 c-0.7 0 -1.25 -0.55 -1.25 -1.24 c0 -0.7 0.55 -1.25 1.25 -1.25 c0.69 0 1.24 0.55 1.24 1.25 c0 0.69 -0.55 1.24 -1.24 1.24 z M253.655 18.19 c0.18 0 0.3 0.12 0.3 0.3 l0 1.21 c0 0.18 -0.12 0.3 -0.3 0.3 l-8.61 0 c-0.18 0 -0.3 -0.12 -0.3 -0.3 l0 -1.21 c0 -0.18 0.12 -0.3 0.3 -0.3 l3.49 0 l0 -6.18 l-2.99 0 c-0.18 0 -0.3 -0.12 -0.3 -0.3 l0 -1.21 c0 -0.18 0.12 -0.3 0.3 -0.3 l4.85 0 c0.18 0 0.3 0.12 0.3 0.3 l0 7.69 l2.96 0 z M265.23 14.3 c2.11 0.27 4.56 0.53 4.56 2.94 c0 1.79 -1.48 3.02 -4.51 3.02 c-2.62 0 -4.39 -0.77 -4.62 -3.1 c-0.02 -0.2 0.11 -0.3 0.29 -0.3 l1.49 0 c0.18 0 0.27 0.08 0.29 0.22 c0.15 1.01 1.09 1.38 2.51 1.38 c1.54 0 2.43 -0.4 2.43 -1.26 c0 -0.91 -1.04 -1.13 -2.44 -1.3 c-2.08 -0.27 -4.38 -0.55 -4.38 -2.92 c0 -1.77 1.38 -3 4.23 -3 c2.48 0 4.27 0.76 4.5 3.09 c0.02 0.2 -0.11 0.3 -0.29 0.3 l-1.49 0 c-0.18 0 -0.27 -0.08 -0.29 -0.22 c-0.15 -1.01 -1.11 -1.38 -2.4 -1.38 c-1.33 0 -2.15 0.38 -2.15 1.25 s0.88 1.1 2.27 1.28 z M286.375 18.35 c0.11 0.13 0.13 0.28 0.02 0.41 c-0.42 0.52 -1.51 1.4 -3.3 1.4 c-2.05 0 -3.98 -0.76 -3.98 -3.97 l0 -4.18 l-2.48 0 c-0.18 0 -0.3 -0.12 -0.3 -0.3 l0 -1.21 c0 -0.18 0.12 -0.3 0.3 -0.3 l2.48 0 l0 -2.6 c0 -0.18 0.12 -0.3 0.3 -0.3 l1.56 0 c0.18 0 0.3 0.12 0.3 0.3 l0 2.6 l3.95 0 c0.18 0 0.3 0.12 0.3 0.3 l0 1.21 c0 0.18 -0.12 0.3 -0.3 0.3 l-3.95 0 l0 3.95 c0 1.87 1.08 2.26 2.19 2.26 c0.83 0 1.43 -0.36 1.82 -0.67 c0.14 -0.13 0.3 -0.12 0.42 0.02 z"></path>
  </g>
</svg>